<?xml version="1.0" encoding="utf-8"?>
<svg xmlns="http://www.w3.org/2000/svg" viewBox="31.0303 135.607 183.8094 181.18" width="183.809px" height="181.18px" preserveAspectRatio="none"><defs><radialGradient id="GradientFill_2" cx="409.92" cy="509.28" r="82.14" gradientUnits="userSpaceOnUse" gradientTransform="matrix(1, 0, 0, 1, -286.947365, -283.083443)"><stop offset="0" stop-color="#ffda01"/><stop offset="1" stop-color="#fdc806"/></radialGradient><radialGradient id="GradientFill_2-2" cx="381.07" cy="507.68" r="29.57" href="#GradientFill_2" gradientTransform="matrix(1, 0, 0, 1, -286.947365, -283.083443)"/><radialGradient id="GradientFill_2-3" cx="435.24" cy="507.68" r="29.57" href="#GradientFill_2" gradientTransform="matrix(1, 0, 0, 1, -286.947365, -283.083443)"/><linearGradient id="linear-gradient" x1="319.4" y1="459.49" x2="505.26" y2="459.49" gradientUnits="userSpaceOnUse" gradientTransform="matrix(1, 0, 0, 1, -286.947365, -283.083443)"><stop offset="0" stop-color="#fff"/><stop offset="1" stop-color="#fff" stop-opacity="0"/></linearGradient></defs><g id="object-0" transform="matrix(0.9999999999999999, 0, 0, 0.9999999999999999, -1.4210854715202004e-14, 0)"><path class="cls-1" d="M 138.052 144.727 C 92.722 144.727 49.402 181.627 41.482 226.987 C 37.662 248.857 42.612 269.307 55.432 284.557 C 67.962 299.467 86.632 307.677 107.992 307.677 C 153.322 307.677 196.642 270.777 204.562 225.417 C 208.382 203.537 203.432 183.097 190.612 167.837 C 178.052 152.917 159.362 144.727 138.052 144.727 Z" style="fill: url(&quot;#GradientFill_2&quot;); stroke-width: 1;"/><path class="cls-2" d="M 107.942 316.787 C 83.842 316.787 62.692 307.427 48.402 290.427 C 33.822 273.077 28.162 249.987 32.402 225.427 C 41.052 175.907 88.402 135.617 137.952 135.617 C 162.052 135.617 183.202 144.987 197.492 161.987 C 212.072 179.337 217.732 202.417 213.442 226.987 C 204.842 276.507 157.492 316.787 107.942 316.787 Z M 138.052 144.727 C 92.722 144.727 49.402 181.627 41.482 226.987 C 37.662 248.857 42.612 269.307 55.432 284.557 C 67.962 299.467 86.632 307.677 107.992 307.677 C 153.322 307.677 196.642 270.777 204.562 225.417 C 208.382 203.537 203.432 183.097 190.612 167.837 C 178.052 152.917 159.362 144.727 138.052 144.727 Z" style="fill: rgb(3, 89, 56); stroke-width: 1;"/><path class="cls-3" d="M 105.782 193.437 C 104.835 191.905 103.153 190.983 101.352 191.007 C 99.579 191.041 97.894 191.791 96.682 193.087 L 70.052 235.027 C 69.695 235.647 69.445 236.323 69.312 237.027 C 68.73 239.745 70.449 242.424 73.162 243.027 L 87.342 243.077 L 85.412 254.077 C 85.225 255.089 85.496 256.133 86.152 256.927 C 86.813 257.703 87.783 258.146 88.802 258.137 L 92.982 258.137 C 94.948 258.108 96.621 256.699 96.982 254.767 L 99.032 243.067 L 113.242 243.067 L 113.552 243.067 C 116.318 242.597 118.507 240.468 119.052 237.717 C 119.162 237.067 119.192 236.917 106.052 193.897 L 105.782 193.437 Z" style="fill: url(&quot;#GradientFill_2-2&quot;); stroke-width: 1;"/><path class="cls-4" d="M 160.152 193.917 L 159.952 193.457 C 159.005 191.925 157.323 191.003 155.522 191.027 C 153.749 191.061 152.064 191.811 150.852 193.107 L 124.202 235.047 C 123.838 235.664 123.588 236.341 123.462 237.047 C 122.879 239.761 124.593 242.439 127.302 243.047 L 141.492 243.097 L 139.562 254.097 C 139.375 255.109 139.646 256.153 140.302 256.947 C 140.963 257.723 141.933 258.166 142.952 258.157 L 147.132 258.157 C 149.096 258.124 150.767 256.717 151.132 254.787 L 153.182 243.087 L 167.392 243.087 L 167.702 243.087 C 170.475 242.62 172.669 240.485 173.212 237.727 C 173.302 237.067 173.332 236.917 160.152 193.917 Z" style="fill: url(&quot;#GradientFill_2-3&quot;); stroke-width: 1;"/><path class="cls-5" d="M 197.542 161.977 C 183.252 144.977 162.102 135.607 138.002 135.607 C 99.552 135.607 62.522 159.907 43.772 193.907 C 46.093 195.892 48.56 197.701 51.152 199.317 C 59.862 204.897 71.152 209.447 84.312 212.557 L 96.682 193.087 C 97.894 191.791 99.579 191.041 101.352 191.007 C 103.153 190.983 104.835 191.905 105.782 193.437 L 105.992 193.897 L 112.992 216.767 C 117.052 217.027 121.172 217.207 125.392 217.207 C 128.882 217.207 132.322 217.097 135.722 216.917 L 150.862 193.087 C 152.074 191.791 153.759 191.041 155.532 191.007 C 157.333 190.983 159.015 191.905 159.962 193.437 L 160.162 193.897 C 162.472 201.417 164.352 207.557 165.912 212.687 C 181.682 209.007 194.912 203.257 204.162 196.147 C 206.95 194.041 209.492 191.629 211.742 188.957 C 208.964 179.063 204.125 169.868 197.542 161.977 Z" style="fill: url(&quot;#linear-gradient&quot;); stroke-width: 1;"/><path class="cls-6" d="M 104.052 194.487 C 103.476 193.549 102.442 192.993 101.342 193.027 C 100.121 193.057 98.963 193.58 98.132 194.477 L 71.782 236.017 C 71.535 236.448 71.363 236.918 71.272 237.407 C 70.893 239.064 71.933 240.714 73.592 241.087 L 89.712 241.087 L 87.382 254.457 C 87.169 255.347 87.867 256.195 88.782 256.157 L 92.962 256.157 C 93.943 256.124 94.772 255.419 94.962 254.457 L 97.302 241.087 L 113.202 241.087 C 115.13 240.764 116.658 239.283 117.042 237.367 C 117.102 237.047 104.052 194.487 104.052 194.487 Z" style="fill: rgb(0, 126, 61); stroke-width: 1;"/><path class="cls-6" d="M 158.232 194.487 C 157.656 193.549 156.622 192.993 155.522 193.027 C 154.298 193.057 153.137 193.579 152.302 194.477 L 125.952 236.017 C 125.705 236.448 125.533 236.918 125.442 237.407 C 125.063 239.064 126.103 240.714 127.762 241.087 L 143.882 241.087 L 141.552 254.457 C 141.339 255.347 142.037 256.195 142.952 256.157 L 147.132 256.157 C 148.113 256.124 148.942 255.419 149.132 254.457 L 151.472 241.087 L 167.372 241.087 C 169.3 240.764 170.828 239.283 171.212 237.367 C 171.262 237.047 158.232 194.487 158.232 194.487 Z" style="fill: rgb(0, 126, 61); stroke-width: 1;"/></g></svg>